<?xml version="1.0" encoding="UTF-8"?>
<svg id="Layer_1" xmlns="http://www.w3.org/2000/svg" viewBox="0 0 387.8552324 214.8047972">
  <defs>
    <style>
      .cls-1 {
        fill: #fff;
      }

      .cls-2 {
        fill: #262960;
      }

      .cls-3 {
        fill: #f4c000;
      }

      .cls-4 {
        fill: #393e8f;
      }
    </style>
  </defs>
  <polygon class="cls-3" points="271.4152299 2.1954801 261.9451982 29.6454923 247.6452104 29.6454923 257.1751787 7.0054777 271.4152299 2.1954801"/>
  <polygon class="cls-1" points="262.0451738 29.6454923 261.0051957 32.3854826 261.9451982 29.6454923 262.0451738 29.6454923"/>
  <polygon class="cls-4" points="262.0451738 29.6454923 261.0051957 32.3854826 261.9451982 29.6454923 262.0451738 29.6454923"/>
  <path class="cls-1" d="M263.4062933,23.6866033s.04-.1132.1103-.3174c.8594-2.7352999,7.1161998-22.3827994,7.9560998-23.3280994.9199-1.0146067-5.0878999,17.0790996-5.6777999,18.3437995"/>
  <path class="cls-4" d="M263.4062933,23.6866033s.04-.1132.1103-.3174c.8594-2.7352999,7.1161998-22.3827994,7.9560998-23.3280994.9199-1.0146067-5.0878999,17.0790996-5.6777999,18.3437995"/>
  <g>
    <path class="cls-3" d="M192.9152299,106.0455168l-42.4500122,5.5499878-6.9800415-2.2600098c22.9700317.9700317,41.7300415-4.5900269,41.7300415-4.5900269,2.4799805.2700195,5.0499878.710022,7.7000122,1.3000488Z"/>
    <path class="cls-3" d="M208.3051835,83.5654752c-6.4199829-3.6399536-10.789978-5.8099976-10.789978-5.8099976.5-.1999512,1-.3999634,1.5-.6099854l9.289978,6.4199829Z"/>
    <path class="cls-3" d="M222.1352006,62.9255216l-.0299683.0599976-.1100464.0700073c.0499878-.0500488.0900269-.0800171.1400146-.1300049Z"/>
    <path class="cls-3" d="M237.9451982,34.7754972l-.7600098,1.3499756c-7.4400024,4.8300171-17.9699707,11.2200317-27.2299805,15.1900024l27.9899902-16.539978Z"/>
    <path class="cls-3" d="M166.705208,26.3354948c-.5900269-.0900269-1.2000122-.1599731-1.8099976-.210022l-.2600098-.8099976,2.0700073,1.0200195Z"/>
    <path class="cls-3" d="M171.3452226,58.1254728c-10.3800049-2.25-21.2700195-7.8399658-30.0500488-13.2699585l30.0500488,13.2699585Z"/>
    <path class="cls-3" d="M257.0952226,131.1655119l-.2800293-.1500244-14.8800049-7.8499756-24.9099731-13.1400146-10.8300171-5.710022-2.8599854.3699951c-6.3599854-2.0699463-12.6099854-3.4699707-18.3300171-3.7399902,0,0-25.75,7.6700439-52.539978,4.8300171l-28.2700195-9.1400146c4.7200317.4400024,15.6699829,1.1799927,27.2399902-.1400146l15.75.5800171,9.1300049-8.0999756c2.9199829-1.8200073,5.4799805-4.0100098,7.5100098-6.6600342l3.0599976-2.7199707-.8900146-.7000122-.75-.5800171-29.6499634-23.1499634-7.0400391-15.9299927,2.460022,1.0799561c11.5800171,8.7800293,35.8599854,25.3500366,50.789978,22.5700073l-.1499634-3.7600098c-2.0800171.0900269-4.2300415-.0299683-6.4000244-.3099976l-10.2000122-32.1799927c1.4400024.3300171,3.1500244.7700195,5.0200195,1.3500366l14.9000244,7.3200073c1.3699951,1.0299683,2.6799927,2.1699829,3.8800049,3.4199829l7.0099487,14.7699585c.2200317,1.9400024.2400513,4.0100098.0200195,6.2300415,0,0,18.1400146-3.5900269,38.7200317-19l-6.5700073,11.7000122c-8.3400269,8.2999878-20.5300293,17.8899536-37.2400513,25.3699951,0,0,34.9800415,17.3399658,54.4300537,36.75l11.3999634,15.9699707.4700317.6500244Z"/>
  </g>
  <g>
    <path class="cls-1" d="M166.0852128,78.7154997c-.0300293.0599976-.0599976.1199951-.0900269.1799927l-.75-.5800171c.5400391.2600098.8400269.4000244.8400269.4000244Z"/>
    <path class="cls-1" d="M241.9351884,123.1655119l-24.9099731-13.1400146c9.1699829,4.0999756,17.9199829,8.9500122,24.9099731,13.1400146Z"/>
    <path class="cls-1" d="M257.0952226,131.1655119l-.2800293-.1500244c-.0599976-.1699829-.1199951-.3399658-.1900024-.5l.4700317.6500244Z"/>
  </g>
  <g>
    <path class="cls-4" d="M166.0852128,78.7154997c-.0300293.0599976-.0599976.1199951-.0900269.1799927l-.75-.5800171c.5400391.2600098.8400269.4000244.8400269.4000244Z"/>
    <path class="cls-4" d="M199.0152055,77.1454923c-.5.210022-1,.4100342-1.5.6099854,0,0,4.3699951,2.1700439,10.789978,5.8099976.0100098.0100098.0200195.0200195.0300293.0200195,18.9199829,10.7600098,55.6099854,34.3200073,50.8499756,53.0300293,0,0-37.25-24.0900269-66.2699585-30.5700073-2.6500244-.5900269-5.2200317-1.0300293-7.7000122-1.3000488,0,0-18.7600098,5.5600586-41.7300415,4.5900269-15.5499878-.6500244-33.039978-4.2999878-47.9400024-14.6900024,0,0,56.2800293,2.8900146,64.9700317-15.3399658,0,0-39.4099731-20.1900024-37.3499756-47.3000488,0,0,7.5499878,6.3099976,18.1299438,12.8500366,8.7800293,5.4299927,19.6700439,11.0199585,30.0500488,13.2699585,1.3099976.2800293,2.6199951.5100098,3.9099731.6900024,2.1699829.2800293,4.3200073.4000244,6.4000244.3099976l.1499634,3.7600098c-14.9299927,2.7800293-39.2099609-13.789978-50.789978-22.5700073-4.0499878-3.0599976-6.539978-5.1699829-6.539978-5.1699829,1.0799561,22.9199829,34.9899902,40.3599854,40.7699585,43.1699829l.75.5800171c-.6300049,1.2200317-1.3599854,2.3599854-2.1699829,3.4199829-2.0300293,2.6500244-4.5900269,4.8400269-7.5100098,6.6600342-7.0200195,4.3599854-16.1300049,6.5299683-24.8800049,7.5199585-11.5700073,1.3200073-22.5199585.5800171-27.2399902.1400146-1.5599976-.1499634-2.4400024-.2699585-2.4400024-.2699585,9.3900146,5.5199585,20.1300049,8.2799683,30.710022,9.4099731,26.789978,2.8400269,52.539978-4.8300171,52.539978-4.8300171,5.7200317.2700195,11.9700317,1.6700439,18.3300171,3.7399902,4.5599976,1.4900513,9.1799927,3.3200073,13.6900024,5.3400269l24.9099731,13.1400146c9.3099976,5.5899658,15.5200195,10.0299683,15.5200195,10.0299683-.1699829-.7199707-.3800049-1.4500122-.6400146-2.1799927l.2800293.1500244-.4700317-.6500244c-1.9699707-5.2700195-6.1099854-10.7000122-11.3999634-15.9699707-19.4500122-19.4100342-54.4300537-36.75-54.4300537-36.75,16.710022-7.4800415,28.9000244-17.0700073,37.2400513-25.3699951,10.1900024-10.1199951,14.6599731-18.3000488,14.6599731-18.3000488-2.710022,2.4100342-5.4199829,4.6100464-8.0899658,6.6000366-20.5800171,15.4099731-38.7200317,19-38.7200317,19,.2200317-2.2200317.2000122-4.2900391-.0200195-6.2300415-.6699829-6.1699829-3.3800049-11-7.0099487-14.7699585-1.2000122-1.25-2.5100098-2.3900146-3.8800049-3.4199829-4.7800293-3.5900269-10.3099976-5.8900146-14.9000244-7.3200073-1.8699951-.5800171-3.5800171-1.0200195-5.0200195-1.3500366-2.3499756-.5299683-3.9799805-.7600098-4.3899536-.8200073,1.4699707.0599976,2.8799438.1600342,4.2299805.3099976.6099854.0500488,1.2199707.1199951,1.8099976.210022,32.1199951,4.1300049,32.1900024,28.4700317,32.1900024,28.4700317,3.2000122-.4800415,7.0100098-1.75,11.0599976-3.4900513,9.2600098-3.9699707,19.789978-10.3599854,27.2299805-15.1900024,3.7300415-2.4199829,6.6900024-4.4400024,8.3099976-5.5699463l8.4500122-22.5300293,3.3699951-1.3499756-.1400146.3299561-9.5299683,22.6400146h14.2999878l-.9400024,2.7399902-14.6199951-1.6699829c-1.8099976,4.1900024-9.0200195,19.1900024-24.25,32.210022-.0499878.0499878-.0900269.0799561-.1400146.1300049-6.25,5.3199463-13.8499756,10.3199463-22.9799805,14.0899658Z"/>
    <path class="cls-4" d="M241.9351884,123.1655119l-24.9099731-13.1400146c9.1699829,4.0999756,17.9199829,8.9500122,24.9099731,13.1400146Z"/>
    <path class="cls-4" d="M257.0952226,131.1655119l-.2800293-.1500244c-.0599976-.1699829-.1199951-.3399658-.1900024-.5l.4700317.6500244Z"/>
  </g>
  <path class="cls-1" d="M158.235396,31.7081031s5.3568999,2.1728999,6.6766998,2.3446999c1.3194.1719,4.1479999-.9101,6.7271072-.5761,2.5790925.3359,6.4173924,2.1805999,6.0765924,4.1161999l-1.6787-.1192s-1.8988925-2.2098999-4.5780999-2.6239999c-2.6889999-.4121-4.3378999,1.0176-6.6269998.6533-3.5887928-.5722-6.5965998-3.7948999-6.5965998-3.7948999"/>
  <path class="cls-4" d="M158.235396,31.7081031s5.3568999,2.1728999,6.6766998,2.3446999c1.3194.1719,4.1479999-.9101,6.7271072-.5761,2.5790925.3359,6.4173924,2.1805999,6.0765924,4.1161999l-1.6787-.1192s-1.8988925-2.2098999-4.5780999-2.6239999c-2.6889999-.4121-4.3378999,1.0176-6.6269998.6533-3.5887928-.5722-6.5965998-3.7948999-6.5965998-3.7948999Z"/>
  <path class="cls-1" d="M174.8573956,40.8321029l2.0498075.3682s-.5-3.1356999-4.8979074-3.8476999c-3.0688999-.5009-4.4682999.4454-5.6679999.9385-1.1992.4893-2.6791999,1.8731-7.7059998-1.1816057,0,0,2.5980999,3.7109057,7.2059998,3.0273057,2.8886999-.4326,2.0990999-1.6269,5.9379998-1.1259,3.0879074.4003,3.0780999,1.8212,3.0780999,1.8212"/>
  <path class="cls-4" d="M174.8573956,40.8321029l2.0498075.3682s-.5-3.1356999-4.8979074-3.8476999c-3.0688999-.5009-4.4682999.4454-5.6679999.9385-1.1992.4893-2.6791999,1.8731-7.7059998-1.1816057,0,0,2.5980999,3.7109057,7.2059998,3.0273057,2.8886999-.4326,2.0990999-1.6269,5.9379998-1.1259,3.0879074.4003,3.0780999,1.8212,3.0780999,1.8212Z"/>
  <path class="cls-1" d="M158.5352031,42.1759029s3.9081928,2.7518999,6.6468928,1.9755944c2.7392999-.7763944,5.7768999-2.4794943,8.7558998.1924056,0,0-3.4189999-1.3741-5.4179999.2148-1.7787927,1.415-4.5179999,1.7157944-6.9769998.3897-2.4589999-1.3321-3.0077928-2.7724999-3.0077928-2.7724999"/>
  <path class="cls-4" d="M158.5352031,42.1759029s3.9081928,2.7518999,6.6468928,1.9755944c2.7392999-.7763944,5.7768999-2.4794943,8.7558998.1924056,0,0-3.4189999-1.3741-5.4179999.2148-1.7787927,1.415-4.5179999,1.7157944-6.9769998.3897-2.4589999-1.3321-3.0077928-2.7724999-3.0077928-2.7724999Z"/>
  <path class="cls-1" d="M188.8007952,43.2042028c-.1299.7481-.8399,1.2442-1.5781,1.1122944-.75-.1288944-1.25-.8397944-1.1202-1.5848944.1299-.7452.8399-1.2422,1.5899-1.1104.7392.1299,1.2392.8389,1.1084,1.583"/>
  <path class="cls-2" d="M188.8007952,43.2042028c-.1299.7481-.8399,1.2442-1.5781,1.1122944-.75-.1288944-1.25-.8397944-1.1202-1.5848944.1299-.7452.8399-1.2422,1.5899-1.1104.7392.1299,1.2392.8389,1.1084,1.583Z"/>
  <path class="cls-1" d="M195.8983951,49.3771027c-.8603.5849-2.0194999,1.4511-3.3182999,1.5312-2.3290999.1465-4.3085999.0147-4.9882999-1.3721v.0889c.1104078,1.8506,2.4794999,3.2118999,5.2772999,3.0341999,1.2305-.0742,2.3388999-.4356,3.1894999-.9678054l-.1602-2.3143945"/>
  <path class="cls-2" d="M195.8983951,49.3771027c-.8603.5849-2.0194999,1.4511-3.3182999,1.5312-2.3290999.1465-4.3085999.0147-4.9882999-1.3721v.0889c.1104078,1.8506,2.4794999,3.2118999,5.2772999,3.0341999,1.2305-.0742,2.3388999-.4356,3.1894999-.9678054l-.1602-2.3143945Z"/>
  <polyline class="cls-3" points="22.9989994 99.5860014 29.9350992 99.5860014 24.3480994 103.7814013 26.5072993 110.4347011 20.9502031 106.3321012 15.3822996 110.4347011 17.5712996 103.7814013 11.9340997 99.5860014 18.8510995 99.5860014 20.9502031 93.1026016 22.9989994 99.5860014"/>
  <polyline class="cls-3" points="49.2963988 70.3780022 56.9433986 70.3780022 50.7753987 74.999102 53.1640987 82.3263019 47.0370988 77.810702 40.900399 82.3263019 43.3192989 74.999102 37.1122991 70.3780022 44.7279989 70.3780022 47.0370988 63.2364023 49.2963988 70.3780022"/>
  <polyline class="cls-3" points="91.2860977 60.2754972 101.9623974 60.2754972 93.3549976 66.7334972 96.6942976 76.967902 88.1182031 70.6612022 79.552298 76.967902 82.9302031 66.7334972 74.2543981 60.2754972 84.8993979 60.2754972 88.1182031 50.2921027 91.2860977 60.2754972"/>
  <polyline class="cls-3" points="12.2343997 168.8897972 17.6812031 168.8897972 13.2929997 172.1777972 14.9922031 177.3965972 10.6239997 174.1816972 6.2563998 177.3965972 7.9750998 172.1777972 3.5570999 168.8897972 8.9853998 168.8897972 10.6239997 163.8027998 12.2343997 168.8897972"/>
  <polyline class="cls-3" points="8.6752998 134.0743005 14.1332996 134.0743005 9.7353998 137.3663005 11.4442997 142.5851003 7.0762031 139.3692004 2.7079999 142.5851003 4.4272999 137.3663005 0 134.0743005 5.4272999 134.0743005 7.0762031 128.9884007 8.6752998 134.0743005"/>
  <polyline class="cls-3" points="26.5972031 193.7520972 31.5243992 194.2295972 27.2670993 196.8252972 28.3462031 201.6953972 24.6782031 198.4024972 20.4403995 200.9316972 22.4589994 196.3613972 18.7412031 192.9932972 23.6483994 193.4688972 25.5883994 189.0127972 26.5972031 193.7520972"/>
  <polyline class="cls-3" points="49.5863987 206.8604972 54.5142031 207.3389972 50.2563987 209.9336972 51.3349987 214.8047972 47.6669988 211.5117972 43.4292031 214.0391972 45.4482031 209.4707972 41.7289989 206.1016972 46.6372031 206.5752972 48.5762031 202.1201972 49.5863987 206.8604972"/>
  <path class="cls-4" d="M243.7551957,135.0555265c-5.460022,0-11.5599976,3.0899658-15.5299683,7.8699951l-1.0900269,1.3099976.2399902-1.6900024c.4500122-3.1400146-.0700073-6.1900024-.7999878-7.9100342l-8.710022,3.5800171c.8400269,2.8699951,1.0800171,5.9000244-.1199951,11.5200195l-11.1599731,52.5899658,9.4500122-2.1900024,3.0199585-14.2999878c.3600464-1.6799927.7399902-3.6599731.7399902-4.0200195v-.8299561l.7200317.4199829c2.2600098,1.2999878,5.7299805,1.9899902,10.0499878,1.9899902,5.9500122,0,12.0499878-2.8099976,16.2999878-7.5100098,5.5400391-6.2299805,8.8500366-18.0499878,8.8500366-25.8800049,0-9.5-4.3599854-14.9499512-11.960022-14.9499512ZM239.7551957,171.2355192c-2.2700195,3.2999878-5.9199829,5.2599487-9.75,5.2599487-3.3099976,0-6.5700073-1.0299683-8.1099854-2.5699463l-.1799927-.1900024.0499878-.25,4.6699829-21.6900024c3.960022-5.6400146,8.8900146-9,13.2000122-9,4.0900269,0,5.9099731,2.3399658,5.9099731,7.5899658,0,6.0599976-2.1699829,15.5100098-5.789978,20.8500366Z"/>
  <path class="cls-4" d="M299.8952104,148.6954801c.6300049-3.1799927,1.8599854-7.8299561,2.710022-10.5499878-3.4000244-2.0899658-8.5200195-3.2799683-14.1200562-3.2799683-7.4499512,0-13.4899902,2.4599609-18.4599609,7.5299683-6.0900269,6.2800293-9.8699951,16.4400024-9.8699951,26.5100098,0,9.2700195,4.3299561,14.5800171,11.8699951,14.5800171,5.6400146,0,10.4199829-2.4500122,13.8300171-7.1000366l.8699951-1.1799927v1.4700317c0,2.9899902,1.0099487,5.3299561,3.0899658,7.1499634l7.7000122-5.7299805c-2.25-2.6300049-2.5900269-5.3300171-1.4500122-10.6900024l3.8300171-18.710022ZM287.0852128,166.7654875c-2.0800171,4.6300049-6.8599854,9.4500122-11.6900024,9.4500122-3.9000244,0-5.6300049-2.3400269-5.6300049-7.5900269,0-6.5599976,1.9699707-15.9799805,6.289978-21.1699829,3.8400269-4.5299683,7.0200195-5.4099731,11.2200317-5.4099731,1.75,0,3.6599731.4099731,4.6400146,1l.2999878.1799927-5.1300049,23.539978Z"/>
  <path class="cls-4" d="M342.9251787,166.5654752c0,10.2900391-8.5999756,17.210022-21.4199829,17.210022-6.0800171,0-11.8999634-1.6099854-16.8499756-4.6500244l3.6499634-6.7199707c4.25,2.7999878,9.6700439,4.4699707,14.6100464,4.4699707,5.4499512,0,9.5599976-3.1499634,9.5599976-7.3099976,0-3.5-2.210022-5.0299683-6.3000488-6.6300049l-5.4199829-2.0499878c-5.9400024-2.2799683-8.5800171-5.6300049-8.5800171-10.8800049,0-7.7699585,6.2400513-15.6099854,20.1900024-15.6099854,4.9700317,0,10.2200317,1.3800049,14.1300049,3.710022l-3.6499634,6.3899536c-3.7700195-2.0899658-7.4200439-3.1099854-11.1300049-3.1099854-5.7000122,0-9.1000366,2.3500366-9.1000366,6.2800293,0,2.8099976,1.5599976,4.539978,5.3699951,5.9699707l5.6000366,2.1500244c6.3800049,2.4699707,9.3399658,5.8900146,9.3399658,10.7799683Z"/>
  <path class="cls-4" d="M384.285225,166.5654752c0,10.2900391-8.6000366,17.210022-21.4100342,17.210022-6.0899658,0-11.9099731-1.6099854-16.8599854-4.6500244l3.6500244-6.7199707c4.25,2.7999878,9.6699829,4.4699707,14.6099854,4.4699707,5.4500122,0,9.5599976-3.1499634,9.5599976-7.3099976,0-3.5-2.210022-5.0299683-6.2999878-6.6300049l-5.4200439-2.0499878c-5.9400024-2.2799683-8.5799561-5.6300049-8.5799561-10.8800049,0-7.7699585,6.2399902-15.6099854,20.1900024-15.6099854,4.9799805,0,10.2199707,1.3800049,14.1300049,3.710022l-3.6500244,6.3899536c-3.7800293-2.0899658-7.4199829-3.1099854-11.1300049-3.1099854-5.7000122,0-9.0999756,2.3500366-9.0999756,6.2800293,0,2.8099976,1.5599976,4.539978,5.3699951,5.9699707l5.6199951,2.1500244c6.3599854,2.4699707,9.3200073,5.8900146,9.3200073,10.7799683Z"/>
  <path class="cls-1" d="M93.4262976,173.4141972c-.6499,1.5898-1.8700946,4.1152-4.2089999,6.7373-1.3090947,1.4033-5.6171999,6.1728-15.2528996,6.1728-14.7719996,0-21.2289995-11.3203-21.2289995-23.7655974,0-14.7792996,9.7245998-23.0106994,20.5799995-23.0106994,13.4726997,0,20.4898049,11.7860997,20.1108995,23.3876994h-34.6142991c-.0897954,2.3387974.0903,5.8006974,1.3994,9.2626974,3.5585999,9.1679,11.8838046,9.1679,13.7529997,9.1679,4.8675999,0,10.4858049-1.6826,14.3138996-9.3554l5.1479999,1.4033M87.1582031,158.4453999c-.4692053-3.9296999-1.6792052-7.7665998-4.6782052-10.5741997-1.8687-1.6826-4.8676999-3.3651999-9.2646998-3.3651999-7.6659998,0-13.2840951,5.4247999-14.3129996,13.9393996h28.2559046"/>
  <path class="cls-4" d="M93.4262976,173.4141972c-.6499,1.5898-1.8700946,4.1152-4.2089999,6.7373-1.3090947,1.4033-5.6171999,6.1728-15.2528996,6.1728-14.7719996,0-21.2289995-11.3203-21.2289995-23.7655974,0-14.7792996,9.7245998-23.0106994,20.5799995-23.0106994,13.4726997,0,20.4898049,11.7860997,20.1108995,23.3876994h-34.6142991c-.0897954,2.3387974.0903,5.8006974,1.3994,9.2626974,3.5585999,9.1679,11.8838046,9.1679,13.7529997,9.1679,4.8675999,0,10.4858049-1.6826,14.3138996-9.3554l5.1479999,1.4033ZM87.1582031,158.4453999c-.4692053-3.9296999-1.6792052-7.7665998-4.6782052-10.5741997-1.8687-1.6826-4.8676999-3.3651999-9.2646998-3.3651999-7.6659998,0-13.2840951,5.4247999-14.3129996,13.9393996h28.2559046"/>
  <path class="cls-1" d="M133.6869966,185.2012972h-5.5179999v-8.044c-.3799.9346-1.0289,2.4317-2.2485999,4.0225-3.4579999,4.3018-8.3261937,5.0527-11.8842997,5.0527-8.605894,0-12.253894-5.4297-13.3739997-8.2363-1.499-3.458-1.5888944-8.0439-1.5888944-15.5282974v-21.8925994h5.5170943v23.1073994c.0909057,9.7314974.0909057,17.4970974,10.1049997,17.4970974,2.5190999,0,6.2670998-.377,9.4457998-3.7422,3.9281999-4.1172,4.0278999-8.8887,4.0278999-17.2177973v-19.6444995h5.5179999v44.6259968"/>
  <path class="cls-4" d="M133.6869966,185.2012972h-5.5179999v-8.044c-.3799.9346-1.0289,2.4317-2.2485999,4.0225-3.4579999,4.3018-8.3261937,5.0527-11.8842997,5.0527-8.605894,0-12.253894-5.4297-13.3739997-8.2363-1.499-3.458-1.5888944-8.0439-1.5888944-15.5282974v-21.8925994h5.5170943v23.1073994c.0909057,9.7314974.0909057,17.4970974,10.1049997,17.4970974,2.5190999,0,6.2670998-.377,9.4457998-3.7422,3.9281999-4.1172,4.0278999-8.8887,4.0278999-17.2177973v-19.6444995h5.5179999v44.6259968Z"/>
  <path class="cls-1" d="M148.0199963,185.2012972h-5.4169999v-44.6259968h5.4169999v7.1112998c2.8090999-5.8964999,7.4863998-7.8592998,13.0142068-7.8592998,1.3090928,0,1.959.0918,3.0878928.2793v4.9579999c-1.689-.2803-1.8788928-.2803-3.3676999-.2803-1.5,0-5.8969999.0967-9.1752998,3.5556999-3.4589999,3.8368999-3.4589999,8.4217998-3.5590999,17.589797v19.2715"/>
  <path class="cls-4" d="M148.0199963,185.2012972h-5.4169999v-44.6259968h5.4169999v7.1112998c2.8090999-5.8964999,7.4863998-7.8592998,13.0142068-7.8592998,1.3090928,0,1.959.0918,3.0878928.2793v4.9579999c-1.689-.2803-1.8788928-.2803-3.3676999-.2803-1.5,0-5.8969999.0967-9.1752998,3.5556999-3.4589999,3.8368999-3.4589999,8.4217998-3.5590999,17.589797v19.2715Z"/>
  <path class="cls-1" d="M183.7030954,186.3242972c-13.0038923,0-20.1210995-10.291-20.1210995-22.8290974,0-11.5985997,5.8979999-23.9471994,20.3007995-23.9471994,14.1347996,0,20.1200995,11.6004968,20.2099995,23.1073994.0908,13.5653974-7.7646998,23.6688974-20.3896995,23.6688974M183.9833954,144.2257003c-3.9384999,0-7.7660998,1.5897969-10.2953997,4.5819999-3.8378999,4.4941999-4.2079999,11.132797-4.2079999,14.7822996,0,12.7235974,6.5472998,17.8680974,14.2230996,17.8680974,9.8163998,0,14.4033996-7.7637,14.4931996-18.1473974,0-2.5273999.1914-19.0849995-14.2128996-19.0849995"/>
  <path class="cls-4" d="M183.7030954,186.3242972c-13.0038923,0-20.1210995-10.291-20.1210995-22.8290974,0-11.5985997,5.8979999-23.9471994,20.3007995-23.9471994,14.1347996,0,20.1200995,11.6004968,20.2099995,23.1073994.0908,13.5653974-7.7646998,23.6688974-20.3896995,23.6688974ZM183.9833954,144.2257003c-3.9384999,0-7.7660998,1.5897969-10.2953997,4.5819999-3.8378999,4.4941999-4.2079999,11.132797-4.2079999,14.7822996,0,12.7235974,6.5472998,17.8680974,14.2230996,17.8680974,9.8163998,0,14.4033996-7.7637,14.4931996-18.1473974,0-2.5273999.1914-19.0849995-14.2128996-19.0849995"/>
</svg>